<?xml version="1.0" ?>
<svg style="fill: #618EE3" enable-background="new 0 0 64 64" version="1.1" viewBox="0 0 64 64" xml:space="preserve"
     xmlns="http://www.w3.org/2000/svg" xmlns:xlink="http://www.w3.org/1999/xlink"><g id="Layer_1"/>
    <g id="icon"><g><path d="M12.146,49.542c-1.122,0-2.176-0.437-2.967-1.228c-0.79-0.791-1.226-1.844-1.226-2.965c0-1.122,0.436-2.175,1.227-2.966    l12.818-12.811C23,28.56,24.28,27.935,25.6,27.815c1.676-0.14,3.321,0.449,4.507,1.627l1.641,1.649    c0.412,0.408,1.092,0.406,1.51-0.006l8.467-8.475c0.106-0.106,0.122-0.23,0.122-0.295s-0.017-0.189-0.123-0.296l-2.18-2.175    c-0.503-0.503-0.681-1.233-0.466-1.909c0.214-0.673,0.779-1.166,1.474-1.284l12.668-2.193c0.008,0,0.016,0,0.022,0    c0.752,0,1.457,0.291,1.986,0.82c0.534,0.534,0.825,1.247,0.819,2.007l-0.015,0.164l-2.18,12.507    c-0.118,0.693-0.612,1.26-1.29,1.473c-0.672,0.216-1.402,0.032-1.9-0.473l-2.416-2.416c-0.163-0.163-0.43-0.161-0.591,0    L36.614,39.575c-1.003,1.013-2.283,1.638-3.603,1.758c-1.663,0.141-3.318-0.449-4.505-1.627l-1.642-1.649    c-0.41-0.406-1.09-0.41-1.508,0.006L15.112,48.314C14.321,49.106,13.267,49.542,12.146,49.542z M26.108,29.794    c-0.11,0-0.221,0.005-0.333,0.014c-0.845,0.077-1.685,0.495-2.358,1.176L10.595,43.798c-0.855,0.855-0.855,2.247,0,3.103    c0.826,0.827,2.275,0.829,3.104,0l10.248-10.256c1.196-1.184,3.138-1.185,4.332-0.004l1.642,1.65    c0.776,0.77,1.808,1.138,2.917,1.05c0.845-0.077,1.685-0.495,2.359-1.177l11.045-11.037c0.944-0.944,2.477-0.942,3.419,0    l2.261,2.261l2.124-12.184c-0.014-0.194-0.095-0.374-0.231-0.511c-0.138-0.138-0.317-0.219-0.513-0.232l-12.19,2.124l2.024,2.02    c0.458,0.457,0.71,1.063,0.711,1.71c0,0.646-0.251,1.254-0.708,1.711l-8.471,8.479c-1.195,1.185-3.139,1.186-4.332,0.004    l-1.642-1.65C27.996,30.166,27.087,29.794,26.108,29.794z M51.882,29.617C51.882,29.617,51.881,29.617,51.882,29.617    L51.882,29.617z M52.082,29.548L52.082,29.548C52.082,29.549,52.082,29.549,52.082,29.548z M40.891,18.623L40.891,18.623    L40.891,18.623z M55.047,17.278h0.01H55.047z"/></g></g></svg>