<?xml version="1.0" ?>
<svg viewBox="0 0 64 64" style="fill: #618EE3" xmlns="http://www.w3.org/2000/svg">
    <g id="outling-cut">
        <path d="M3,60H61a1,1,0,0,0,.757-1.654l-19-22a1.035,1.035,0,0,0-1.514,0L32.86,46.053a1,1,0,1,0,1.514,1.308L42,38.53,49.315,47H42a1,1,0,0,0-.762.358l-.012.009L32.526,58H25.185l6.776-7.846a1,1,0,1,0-1.513-1.308l-7.393,8.56L20.8,54.4A1,1,0,0,0,20,54H18.414L17,52.586V48h9a1,1,0,0,0,.8-1.6L22,40h2a1,1,0,0,0,.768-1.64L21.135,34H22a1,1,0,0,0,.8-1.6l-6-8a1.036,1.036,0,0,0-1.6,0l-6,8A1,1,0,0,0,10,34h.865L7.232,38.36A1,1,0,0,0,8,40h2L5.2,46.4A1,1,0,0,0,6,48h9v4H9.917a1,1,0,0,0,0,2h5.669l1.707,1.707A1,1,0,0,0,18,56h1.5L21,58H4V54H6.5a1,1,0,0,0,0-2H3a1,1,0,0,0-1,1v6A1,1,0,0,0,3,60Zm55.815-2H52V50.109ZM50,49v7.2L46.466,51.88,44.11,49Zm-8,.579,3.445,4.211L48.89,58H43V57a1,1,0,0,0-2,0v1H35.11ZM8,46l4.8-6.4A1,1,0,0,0,12,38H10.135l3.633-4.36A1,1,0,0,0,13,32H12l4-5.333L20,32H19a1,1,0,0,0-.768,1.64L21.865,38H20a1,1,0,0,0-.8,1.6L24,46H17V44a1,1,0,0,0-2,0v2Z"/>
        <path d="M42,54a1,1,0,0,0,.38-.08,1.155,1.155,0,0,0,.33-.21A1.052,1.052,0,0,0,43,53a1,1,0,0,0-.08-.38.9.9,0,0,0-.54-.54,1.021,1.021,0,0,0-1.09.21,1.155,1.155,0,0,0-.21.33A1,1,0,0,0,41,53a.99.99,0,0,0,1,1Z"/>
        <path d="M21.366,19a1,1,0,0,0,.8-1.165A10.14,10.14,0,0,1,22,16a10,10,0,0,1,19.8-2H41a1,1,0,0,0,0,2h1a9.983,9.983,0,0,1-.2,2H38a1,1,0,0,0,0,2h3.159a9.944,9.944,0,0,1-1.178,2H35a1,1,0,0,0,0,2h2.975A9.969,9.969,0,0,1,24.44,22.546a1,1,0,1,0-1.511,1.31A11.972,11.972,0,0,0,40.919,24H41a1,1,0,0,0,1-1,.99.99,0,0,0-.058-.288,11.945,11.945,0,0,0,1.382-2.777A.992.992,0,0,0,44,19a.982.982,0,0,0-.238-.626A11.984,11.984,0,0,0,44,16c0-.27-.023-.534-.041-.8A.908.908,0,0,0,44,15a.988.988,0,0,0-.09-.406A12,12,0,1,0,20.2,18.2,1,1,0,0,0,21.366,19Z"/>
        <path d="M34.71,19.71A1.014,1.014,0,1,0,34,20,1.052,1.052,0,0,0,34.71,19.71Z"/>
        <path d="M37.71,15.71A1.014,1.014,0,1,0,37,16,1.052,1.052,0,0,0,37.71,15.71Z"/>
        <path d="M31.71,23.71A1.014,1.014,0,1,0,31,24,1.052,1.052,0,0,0,31.71,23.71Z"/>
        <path d="M15.62,40.92A1,1,0,0,0,16,41a1.033,1.033,0,0,0,.71-.29,1.014,1.014,0,0,0,0-1.42,1.021,1.021,0,0,0-1.09-.21,1.032,1.032,0,0,0-.33.21,1.014,1.014,0,0,0,0,1.42A1.032,1.032,0,0,0,15.62,40.92Z"/>
        <path d="M50,26h4a1,1,0,0,0,0-2H50a1,1,0,0,0,0,2Z"/>
        <path d="M49,32a1,1,0,0,0,0,2h6a1,1,0,0,0,0-2Z"/>
        <path d="M46,30H58a1,1,0,0,0,0-2H46a1,1,0,0,0,0,2Z"/>
        <path d="M42.38,28.08a1,1,0,0,0-1.09.21,1.155,1.155,0,0,0-.21.33A1,1,0,0,0,41,29a.99.99,0,0,0,1,1,1,1,0,0,0,.38-.08,1.155,1.155,0,0,0,.33-.21A1.052,1.052,0,0,0,43,29a1,1,0,0,0-.08-.38.9.9,0,0,0-.54-.54Z"/>
        <path d="M58,26a1,1,0,0,0,.38-.08,1.032,1.032,0,0,0,.33-.21A1.052,1.052,0,0,0,59,25a1.225,1.225,0,0,0-.02-.19.6.6,0,0,0-.06-.19.757.757,0,0,0-.09-.18l-.12-.15a1.032,1.032,0,0,0-.33-.21,1,1,0,0,0-1.09.21A1,1,0,0,0,58,26Z"/>
        <path d="M58.62,32.08a1.155,1.155,0,0,0-.33.21A1.052,1.052,0,0,0,58,33a1,1,0,0,0,.08.38.9.9,0,0,0,.54.54A.838.838,0,0,0,59,34a1.355,1.355,0,0,0,.2-.02.636.636,0,0,0,.18-.06.556.556,0,0,0,.17-.09.955.955,0,0,0,.16-.12,1.032,1.032,0,0,0,.21-.33A1,1,0,0,0,60,33a1.052,1.052,0,0,0-.29-.71.955.955,0,0,0-.16-.12.556.556,0,0,0-.17-.09.636.636,0,0,0-.18-.06A.956.956,0,0,0,58.62,32.08Z"/>
        <path d="M9,14h4a1,1,0,0,0,0-2H9a1,1,0,0,0,0,2Z"/>
        <path d="M7,18h9a1,1,0,0,0,0-2H7a1,1,0,0,0,0,2Z"/>
        <path d="M16.62,13.92A1,1,0,0,0,17,14a1.052,1.052,0,0,0,.71-.29l.12-.15a.757.757,0,0,0,.09-.18.636.636,0,0,0,.06-.18A1.5,1.5,0,0,0,18,13a1.052,1.052,0,0,0-.29-.71,1.017,1.017,0,0,0-1.09-.21.933.933,0,0,0-.33.21,1.014,1.014,0,0,0,0,1.42A.933.933,0,0,0,16.62,13.92Z"/>
        <path d="M2.62,17.92A.838.838,0,0,0,3,18a1.052,1.052,0,0,0,.71-.29,1.155,1.155,0,0,0,.21-.33.943.943,0,0,0,0-.76,1.032,1.032,0,0,0-.21-.33,1,1,0,0,0-1.09-.21,1.155,1.155,0,0,0-.33.21,1.014,1.014,0,0,0,0,1.42A1.155,1.155,0,0,0,2.62,17.92Z"/>
    </g>
</svg>