<svg width="1559" height="1550" viewBox="0 0 1559 1550" fill="none" xmlns="http://www.w3.org/2000/svg">
<path d="M1011.87 691.78H1512.92V1240.25H1011.87V691.78Z" stroke="white" stroke-width="50" stroke-miterlimit="10" stroke-linecap="round" stroke-linejoin="round"/>
<path d="M1011.87 691.78V640.267L1002.21 628.886H1108.43L981.101 479.238H1310.33L1512.92 691.78H1011.87Z" stroke="white" stroke-width="50" stroke-miterlimit="10" stroke-linecap="round" stroke-linejoin="round"/>
<path d="M1108.43 628.886H1002.21L874.876 479.239L779.994 367.727L685.111 479.239L557.779 628.886H451.554L578.886 479.239L744.585 284.467C763.226 262.505 796.761 262.505 815.501 284.467L981.2 479.239L1108.43 628.886Z" stroke="white" stroke-width="50" stroke-miterlimit="10" stroke-linecap="round" stroke-linejoin="round"/>
<path d="M1011.28 640.267V1240.25H547.522V640.267L557.187 628.886L684.519 479.239L779.402 367.727L874.284 479.239L1001.62 628.886L1011.28 640.267Z" stroke="white" stroke-width="50" stroke-miterlimit="10" stroke-linecap="round" stroke-linejoin="round"/>
<path d="M451.554 628.886H557.779L548.113 640.267V691.78H47.1688L249.657 479.238H578.886L451.554 628.886Z" stroke="white" stroke-width="50" stroke-miterlimit="10" stroke-linecap="round" stroke-linejoin="round"/>
<path d="M47.1688 691.78H548.212V1240.25H47.1688V691.78Z" stroke="white" stroke-width="50" stroke-miterlimit="10" stroke-linecap="round" stroke-linejoin="round"/>
<path d="M142.347 794.706H247.487V917.998H142.347V794.706Z" stroke="white" stroke-width="50" stroke-miterlimit="10" stroke-linecap="round" stroke-linejoin="round"/>
<path d="M329.252 794.706H434.392V917.998H329.252V794.706Z" stroke="white" stroke-width="50" stroke-miterlimit="10" stroke-linecap="round" stroke-linejoin="round"/>
<path d="M1124.41 794.706H1229.55V917.998H1124.41V794.706Z" stroke="white" stroke-width="50" stroke-miterlimit="10" stroke-linecap="round" stroke-linejoin="round"/>
<path d="M1311.32 794.706H1416.46V917.998H1311.32V794.706Z" stroke="white" stroke-width="50" stroke-miterlimit="10" stroke-linecap="round" stroke-linejoin="round"/>
<path d="M142.347 1021.02H247.487V1144.32H142.347V1021.02Z" stroke="white" stroke-width="50" stroke-miterlimit="10" stroke-linecap="round" stroke-linejoin="round"/>
<path d="M329.252 1021.02H434.392V1144.32H329.252V1021.02Z" stroke="white" stroke-width="50" stroke-miterlimit="10" stroke-linecap="round" stroke-linejoin="round"/>
<path d="M1124.41 1021.02H1229.55V1144.32H1124.41V1021.02Z" stroke="white" stroke-width="50" stroke-miterlimit="10" stroke-linecap="round" stroke-linejoin="round"/>
<path d="M1311.32 1021.02H1416.46V1144.32H1311.32V1021.02Z" stroke="white" stroke-width="50" stroke-miterlimit="10" stroke-linecap="round" stroke-linejoin="round"/>
<path d="M779.402 830.545C850.27 830.545 907.72 772.396 907.72 700.665C907.72 628.933 850.27 570.784 779.402 570.784C708.534 570.784 651.084 628.933 651.084 700.665C651.084 772.396 708.534 830.545 779.402 830.545Z" stroke="white" stroke-width="50" stroke-miterlimit="10" stroke-linecap="round" stroke-linejoin="round"/>
<path d="M779.402 639.268V713.543H816.783" stroke="white" stroke-width="50" stroke-miterlimit="10" stroke-linecap="round" stroke-linejoin="round"/>
<path d="M708.092 960.027H851.797V1240.25H708.092V960.027Z" stroke="white" stroke-width="50" stroke-miterlimit="10" stroke-linecap="round" stroke-linejoin="round"/>
</svg>
